<?xml version="1.0" encoding="utf-8"?>
<svg width="800px" height="800px" viewBox="0 0 800 800" version="1.1" xmlns:xlink="http://www.w3.org/1999/xlink" xmlns="http://www.w3.org/2000/svg">
  <defs>
    <path d="M0 0L0 800L800 800L800 0L0 0Z" id="path_1" />
    <clipPath id="clip_1">
      <use xlink:href="#path_1" clip-rule="evenodd" fill-rule="evenodd" />
    </clipPath>
  </defs>
  <g id="burger-advanced-svgrepo-com">
    <path d="M0 0L0 800L800 800L800 0L0 0Z" id="burger-advanced-svgrepo-com" fill="none" stroke="none" transform="matrix(-1 0 0 1 800 0)" />
    <path d="M184 401L617.333 401" id="Line" fill="none" fill-rule="evenodd" stroke="#000000" stroke-width="67" stroke-linecap="round" clip-path="url(#clip_1)" transform="matrix(-1 0 0 1 800 0)" />
    <path d="M184 401L617.333 401" id="Line" fill="none" fill-rule="evenodd" stroke="#000000" stroke-width="67" stroke-linecap="round" clip-path="url(#clip_1)" transform="matrix(-1 0 0 1 800 0)" />
    <path d="M184 567L384 567" id="Line" fill="none" fill-rule="evenodd" stroke="#000000" stroke-width="67" stroke-linecap="round" clip-path="url(#clip_1)" transform="matrix(-1 0 0 1 800 0)" />
    <path d="M184 567L384 567" id="Line" fill="none" fill-rule="evenodd" stroke="#000000" stroke-width="67" stroke-linecap="round" clip-path="url(#clip_1)" transform="matrix(-1 0 0 1 800 0)" />
    <path d="M184 234L517.333 234" id="Line" fill="none" fill-rule="evenodd" stroke="#000000" stroke-width="67" stroke-linecap="round" clip-path="url(#clip_1)" transform="matrix(-1 0 0 1 800 0)" />
    <path d="M184 234L517.333 234" id="Line" fill="none" fill-rule="evenodd" stroke="#000000" stroke-width="67" stroke-linecap="round" clip-path="url(#clip_1)" transform="matrix(-1 0 0 1 800 0)" />
  </g>
</svg>