<?xml version="1.0" encoding="utf-8"?>
<svg width="512px" height="512px" viewBox="0 0 512 512" version="1.1" xmlns:xlink="http://www.w3.org/1999/xlink" xmlns="http://www.w3.org/2000/svg">
  <defs>
    <path d="M512 0L512 0L512 512L0 512L0 0L512 0Z" id="path_1" />
    <path d="M512 0L512 0L512 512L0 512L0 0L512 0L512 0Z" id="path_2" />
    <clipPath id="clip_1">
      <use xlink:href="#path_1" clip-rule="evenodd" fill-rule="evenodd" />
    </clipPath>
    <clipPath id="clip_2">
      <use xlink:href="#path_2" clip-rule="evenodd" fill-rule="evenodd" />
    </clipPath>
    <style>.cappello {fill: #000;} .gambo {fill: #EF534A;} @media (prefers-color-scheme: dark) {.cappello {fill: #EF534A;} .gambo {fill:#D5D4D0;}}</style>
  </defs>
  <g id="fungo">
    <path d="M512 0L512 0L512 512L0 512L0 0L512 0Z" id="fungo" fill="none" stroke="none" />
    <g id="fungo" clip-path="url(#clip_1)">
      <path d="M512 0L512 0L512 512L0 512L0 0L512 0L512 0Z" id="fungo#1" fill="none" stroke="none" />
      <g id="Mask-Group">
        <path d="M512 0L512 0L512 512L0 512L0 0L512 0L512 0Z" id="path_1" fill="none" fill-rule="evenodd" stroke="none" />
        <g clip-path="url(#clip_2)">
          <path class="gambo" d="M347.815 404.81L331.059 254.758C329.9 241.928 319.183 232.077 306.3 232L206.266 232C193.461 231.923 182.666 241.53 181.258 254.258L164.502 404.309C160.839 439.295 177.44 473.309 207.275 491.945C237.109 510.582 274.957 510.582 304.792 491.945C334.626 473.309 351.227 439.295 347.564 404.309L347.815 404.81L347.815 404.81Z" id="secondary" stroke="none" />
        </g>
      </g>
      <g id="Mask-Group">
        <path d="M512 0L512 0L512 512L0 512L0 0L512 0L512 0Z" id="path_1" fill="none" fill-rule="evenodd" stroke="none" />
        <g clip-path="url(#clip_2)">
          <path class="cappello" d="M257.077 7.00002C132.77 7.00002 32 107.77 32 232.077C32 259.701 54.3934 282.094 82.0171 282.094L432.137 282.094C459.761 282.094 482.154 259.701 482.154 232.077C482.154 107.77 381.384 7 257.077 7.00002L257.077 7.00002L257.077 7.00002Z" id="primary" stroke="none" />
        </g>
      </g>
    </g>
  </g>
</svg>