<?xml version="1.0" encoding="utf-8"?><!-- Uploaded to: SVG Repo, www.svgrepo.com, Generator: SVG Repo Mixer Tools -->
<svg fill="#000000" width="100px" height="100px" viewBox="0 0 24 24" id="mushroom" data-name="Flat Color" xmlns="http://www.w3.org/2000/svg" class="icon flat-color"><path id="secondary" d="M15.66,17.91l-.67-6A1,1,0,0,0,14,11H10a1,1,0,0,0-1,.89l-.67,6a3.68,3.68,0,1,0,7.32,0Z" style="fill: rgb(44, 169, 188);"></path><path id="primary" d="M12,2a9,9,0,0,0-9,9,2,2,0,0,0,2,2H19a2,2,0,0,0,2-2A9,9,0,0,0,12,2Z" style="fill: rgb(0, 0, 0);"></path></svg>